<svg fill="none" height="auto" viewBox="0 0 184 33" width="100%" xmlns="http://www.w3.org/2000/svg">
<g clip-path="url(#clip0_1159_1439)">
<path d="M51.1229 13.8565L39.2802 1.99969C38.3927 1.11118 37.147 0.681174 35.9013 0.835581C33.0278 1.19191 29.7034 1.39619 26.1585 1.39619C22.6135 1.39619 19.2892 1.192 16.4157 0.835581C15.17 0.681174 13.9243 1.11118 13.0368 1.99969L1.1941 13.8565C-0.398033 15.4505 -0.398033 18.0353 1.1941 19.6293L13.0369 31.4862C13.9243 32.3747 15.1701 32.8047 16.4158 32.6502C19.2892 32.2939 22.6136 32.0896 26.1586 32.0896C29.7035 32.0896 33.0279 32.2939 35.9013 32.6502C37.1471 32.8046 38.3928 32.3746 39.2802 31.4862L51.1229 19.6293C52.7152 18.0353 52.7152 15.4505 51.1229 13.8565V13.8565ZM26.1586 25.9794C11.2622 25.9794 7.53666 24.1335 7.53666 16.7429C7.53666 9.35229 11.2621 7.50647 26.1585 7.50647C41.0548 7.50647 44.7804 9.35237 44.7804 16.743C44.7804 24.1336 41.0548 25.9795 26.1585 25.9795L26.1586 25.9794Z" fill="CurrentColor"></path>
<path d="M17.7474 12.1836H15.8241C15.5847 12.1836 15.3906 12.3779 15.3906 12.6175V20.8708C15.3906 21.1104 15.5847 21.3047 15.8241 21.3047H17.7474C17.9868 21.3047 18.1808 21.1104 18.1808 20.8708V12.6175C18.1808 12.3779 17.9868 12.1836 17.7474 12.1836Z" fill="CurrentColor"></path>
<path d="M35.5031 16.5433L37.6658 18.7067C37.8352 18.8761 37.8352 19.151 37.6659 19.3205L36.3049 20.6832C36.1356 20.8526 35.8612 20.8526 35.6918 20.6832L31.5566 16.543C31.3874 16.3736 31.3874 16.099 31.5565 15.9295L33.2221 14.2599L35.6918 11.7873C35.861 11.6178 36.1354 11.6178 36.3048 11.7873L37.666 13.1501C37.8353 13.3196 37.8353 13.5943 37.666 13.7639L35.5029 15.9295C35.3336 16.0991 35.3337 16.3739 35.5031 16.5434V16.5433Z" fill="CurrentColor"></path>
<path d="M83.3716 8.59766V24.539H80.7598V13.6209L75.9029 24.539H74.0932L69.2134 13.6209V24.539H66.6016V8.59766H69.4194L75.0094 21.0984L80.5764 8.59766H83.3715H83.3716Z" fill="CurrentColor"></path>
<path d="M98.2858 19.1957H88.6407C88.7169 20.2049 89.0911 21.0158 89.7633 21.627C90.4352 22.239 91.2601 22.5445 92.2376 22.5445C93.6428 22.5445 94.635 21.9559 95.216 20.7784H98.0339C97.652 21.9408 96.9607 22.8926 95.9607 23.6342C94.9598 24.3758 93.7191 24.7464 92.2377 24.7464C91.0309 24.7464 89.9503 24.475 88.996 23.9323C88.0412 23.3897 87.2928 22.6247 86.7507 21.6386C86.2085 20.6521 85.9375 19.5092 85.9375 18.2094C85.9375 16.9095 86.2009 15.7666 86.728 14.7803C87.2549 13.794 87.9954 13.0335 88.9502 12.498C89.9045 11.963 91.0007 11.6953 92.2377 11.6953C93.429 11.6953 94.4905 11.9553 95.4222 12.4751C96.3534 12.9952 97.0794 13.7251 97.5984 14.6656C98.1175 15.606 98.3777 16.688 98.3777 17.9111C98.3777 18.3853 98.3465 18.8135 98.2859 19.1956L98.2858 19.1957ZM95.6511 17.0855C95.6359 16.1222 95.2922 15.3503 94.6203 14.7688C93.948 14.1878 93.1155 13.8972 92.1228 13.8972C91.2215 13.8972 90.4507 14.1839 89.8091 14.7574C89.1678 15.3308 88.7858 16.1071 88.6636 17.0855H95.6511V17.0855Z" fill="CurrentColor"></path>
<path d="M112.419 19.1957H102.774C102.85 20.2049 103.224 21.0158 103.896 21.627C104.568 22.239 105.393 22.5445 106.37 22.5445C107.776 22.5445 108.768 21.9559 109.349 20.7784H112.167C111.785 21.9408 111.094 22.8926 110.093 23.6342C109.093 24.3758 107.852 24.7464 106.37 24.7464C105.164 24.7464 104.083 24.475 103.129 23.9323C102.174 23.3897 101.426 22.6247 100.884 21.6386C100.341 20.6521 100.07 19.5092 100.07 18.2094C100.07 16.9095 100.334 15.7666 100.861 14.7803C101.388 13.7939 102.128 13.0335 103.083 12.498C104.037 11.963 105.133 11.6953 106.37 11.6953C107.562 11.6953 108.623 11.9553 109.555 12.4751C110.486 12.9952 111.212 13.7251 111.731 14.6656C112.25 15.606 112.511 16.688 112.511 17.9111C112.511 18.3853 112.479 18.8135 112.419 19.1956L112.419 19.1957ZM109.784 17.0855C109.769 16.1222 109.425 15.3503 108.753 14.7688C108.081 14.1878 107.248 13.8972 106.256 13.8972C105.354 13.8972 104.583 14.1839 103.942 14.7574C103.3 15.3308 102.918 16.1071 102.797 17.0855H109.784H109.784Z" fill="CurrentColor"></path>
<path d="M118.123 14.0333V21.0291C118.123 21.5032 118.234 21.8435 118.456 22.0498C118.677 22.2561 119.055 22.3597 119.59 22.3597H121.194V24.5386H119.132C117.955 24.5386 117.054 24.2633 116.428 23.7129C115.802 23.1624 115.489 22.2678 115.489 21.0291V14.0333H114V11.9002H115.489V8.75781H118.123V11.9002H121.194V14.0333H118.123H118.123Z" fill="CurrentColor"></path>
<path d="M135.121 13.1843C134.708 12.3894 134.135 11.7891 133.402 11.3838C132.669 10.9788 131.821 10.7759 130.859 10.7759C129.805 10.7759 128.866 11.0133 128.041 11.487C127.216 11.9612 126.571 12.6339 126.106 13.5055C125.639 14.3771 125.407 15.3864 125.407 16.5332C125.407 17.68 125.639 18.6932 126.106 19.5724C126.571 20.4518 127.216 21.1284 128.041 21.6021C128.866 22.0763 129.805 22.3134 130.859 22.3134C132.28 22.3134 133.433 21.9159 134.319 21.1206C135.204 20.3257 135.747 19.2475 135.945 17.8863H129.966V15.7992H138.74V17.8406C138.572 19.0791 138.133 20.2183 137.423 21.258C136.713 22.2982 135.789 23.1274 134.651 23.7468C133.513 24.3662 132.249 24.6761 130.86 24.6761C129.363 24.6761 127.996 24.3281 126.759 23.6324C125.521 22.9367 124.54 21.9693 123.815 20.7306C123.089 19.4921 122.727 18.093 122.727 16.5333C122.727 14.9735 123.089 13.5742 123.815 12.3357C124.54 11.0972 125.525 10.1302 126.77 9.43414C128.015 8.73846 129.378 8.39062 130.86 8.39062C132.555 8.39062 134.063 8.80734 135.384 9.6406C136.705 10.4743 137.664 11.6554 138.259 13.1843H135.121H135.121Z" fill="CurrentColor"></path>
<path d="M152.786 19.1957H143.141C143.217 20.2049 143.591 21.0158 144.263 21.627C144.935 22.239 145.76 22.5445 146.738 22.5445C148.143 22.5445 149.135 21.9559 149.716 20.7784H152.534C152.152 21.9408 151.461 22.8926 150.461 23.6342C149.46 24.3758 148.219 24.7464 146.738 24.7464C145.531 24.7464 144.45 24.475 143.496 23.9323C142.541 23.3897 141.793 22.6247 141.251 21.6386C140.708 20.6521 140.438 19.5092 140.438 18.2094C140.438 16.9095 140.701 15.7666 141.228 14.7803C141.755 13.7939 142.496 13.0335 143.45 12.498C144.404 11.963 145.5 11.6953 146.738 11.6953C147.929 11.6953 148.991 11.9553 149.922 12.4751C150.853 12.9952 151.579 13.7251 152.098 14.6656C152.617 15.606 152.878 16.688 152.878 17.9111C152.878 18.3853 152.847 18.8135 152.786 19.1956L152.786 19.1957ZM150.151 17.0855C150.136 16.1222 149.792 15.3503 149.12 14.7688C148.448 14.1878 147.615 13.8972 146.623 13.8972C145.721 13.8972 144.95 14.1839 144.309 14.7574C143.668 15.3308 143.285 16.1071 143.164 17.0855H150.151H150.151Z" fill="CurrentColor"></path>
<path d="M166.919 19.1957H157.274C157.35 20.2049 157.724 21.0158 158.396 21.627C159.068 22.239 159.893 22.5445 160.87 22.5445C162.276 22.5445 163.268 21.9559 163.849 20.7784H166.667C166.285 21.9408 165.594 22.8926 164.593 23.6342C163.593 24.3758 162.352 24.7464 160.87 24.7464C159.664 24.7464 158.583 24.475 157.629 23.9323C156.674 23.3897 155.926 22.6247 155.384 21.6386C154.841 20.6521 154.57 19.5092 154.57 18.2094C154.57 16.9095 154.834 15.7666 155.361 14.7803C155.888 13.7939 156.628 13.0335 157.583 12.498C158.537 11.963 159.633 11.6953 160.87 11.6953C162.062 11.6953 163.123 11.9553 164.055 12.4751C164.986 12.9952 165.712 13.7251 166.231 14.6656C166.75 15.606 167.011 16.688 167.011 17.9111C167.011 18.3853 166.979 18.8135 166.919 19.1956L166.919 19.1957ZM164.284 17.0855C164.269 16.1222 163.925 15.3503 163.253 14.7688C162.581 14.1878 161.748 13.8972 160.756 13.8972C159.854 13.8972 159.083 14.1839 158.442 14.7574C157.8 15.3308 157.418 16.1071 157.297 17.0855H164.284H164.284Z" fill="CurrentColor"></path>
<path d="M174.573 18.2323L180.391 24.5399H176.864L172.19 19.1039V24.5399H169.578V7.56641H172.19V17.4295L176.772 11.9015H180.391L174.573 18.2322L174.573 18.2323Z" fill="CurrentColor"></path>
</g>
<defs>
<clipPath id="clip0_1159_1439">
<rect fill="white" height="32" transform="translate(0 0.804688)" width="183.547"></rect>
</clipPath>
</defs>
</svg>